<svg xmlns="http://www.w3.org/2000/svg" version="1.1" xmlns:xlink="http://www.w3.org/1999/xlink" xmlns:svgjs="http://svgjs.dev/svgjs" width="1000" height="1000" viewBox="0 0 1000 1000"><rect width="1000" height="1000" fill="#000000"></rect><g transform="matrix(0.7,0,0,0.7,149.57575757575756,282.1265587044535)"><svg viewBox="0 0 396 247" data-background-color="#ffffff" preserveAspectRatio="xMidYMid meet" height="623" width="1000" xmlns="http://www.w3.org/2000/svg" xmlns:xlink="http://www.w3.org/1999/xlink"><g id="tight-bounds" transform="matrix(1,0,0,1,0.2400000000000091,-0.09999999999999432)"><svg viewBox="0 0 395.52 247.2" height="247.2" width="395.52"><g><svg></svg></g><g><svg viewBox="0 0 395.52 247.2" height="247.2" width="395.52"><g transform="matrix(1,0,0,1,102.21623621297776,47.215199999999996)"><svg viewBox="0 0 191.08752757404446 152.7696" height="152.7696" width="191.08752757404446"><g><svg viewBox="0 0 191.08752757404446 152.7696" height="152.7696" width="191.08752757404446"><g><svg viewBox="0 0 191.08752757404446 152.7696" height="152.7696" width="191.08752757404446"><g transform="matrix(1,0,0,1,95.27646979626667,0)"><svg viewBox="0 0 95.81105777777779 152.7696" height="152.7696" width="95.81105777777779"><g id="textblocktransform"><svg viewBox="0 0 95.81105777777779 152.7696" height="152.7696" width="95.81105777777779" id="textblock"><g><svg viewBox="0 0 95.81105777777779 152.7696" height="152.7696" width="95.81105777777779"><g transform="matrix(1,0,0,1,0,0)"><svg width="95.81105777777779" viewBox="1.0499999523162842 -40.5 25.400001525878906 40.5" height="152.7696" data-palette-color="#0080ff"><path d="M9.5 0L1.05 0 8.7-40.5 18.9-40.5 26.45 0 18.2 0 16.85-8.55 10.9-8.55 9.5 0ZM13.85-29.7L11.7-13.9 16-13.9 13.85-29.7Z" opacity="1" transform="matrix(1,0,0,1,0,0)" fill="#ffffff" class="undefined-text-0" data-fill-palette-color="primary" id="text-0"></path></svg></g></svg></g></svg></g></svg></g><g transform="matrix(1,0,0,1,0,52.38799741660817)"><svg viewBox="0 0 59.211233706666675 47.99360516678366" height="47.99360516678366" width="59.211233706666675"><g><svg xmlns:x="http://ns.adobe.com/Extensibility/1.0/" xmlns:i="http://ns.adobe.com/AdobeIllustrator/10.0/" xmlns:graph="http://ns.adobe.com/Graphs/1.0/" xmlns="http://www.w3.org/2000/svg" xmlns:xlink="http://www.w3.org/1999/xlink" version="1.1" x="0" y="0" viewBox="3.5 12.300000190734863 92.89999389648438 75.29999542236328" enable-background="new 0 0 100 100" xml:space="preserve" height="47.99360516678366" width="59.211233706666675" class="icon-icon-0" data-fill-palette-color="accent" id="icon-0"><path d="M10.7 87.6h78.5c4 0 7.2-3.2 7.2-7.2V19.5c0-4-3.2-7.2-7.2-7.2H10.7c-4 0-7.2 3.2-7.2 7.2v60.9C3.6 84.4 6.8 87.6 10.7 87.6zM89.3 82.6H10.7c-1.2 0-2.2-1-2.2-2.2V34.9h82.9v45.5C91.4 81.7 90.5 82.6 89.3 82.6zM10.7 17.4h78.5c1.2 0 2.2 1 2.2 2.2v10.4H8.6V19.5C8.6 18.3 9.5 17.4 10.7 17.4zM21.9 23.6c0-1.7 1.4-3 3-3s3 1.4 3 3c0 1.7-1.4 3-3 3S21.9 25.3 21.9 23.6zM31.9 23.6c0-1.7 1.4-3 3-3s3 1.4 3 3c0 1.7-1.4 3-3 3S31.9 25.3 31.9 23.6zM11.9 23.6c0-1.7 1.4-3 3-3 1.7 0 3 1.4 3 3 0 1.7-1.4 3-3 3C13.3 26.7 11.9 25.3 11.9 23.6zM85.4 74.7c0 1.4-1.1 2.5-2.5 2.5H17.1c-1.4 0-2.5-1.1-2.5-2.5s1.1-2.5 2.5-2.5h65.8C84.3 72.2 85.4 73.4 85.4 74.7zM85.4 64.2c0 1.4-1.1 2.5-2.5 2.5H34.4c-1.4 0-2.5-1.1-2.5-2.5s1.1-2.5 2.5-2.5h48.5C84.3 61.7 85.4 62.8 85.4 64.2zM85.4 53.7c0 1.4-1.1 2.5-2.5 2.5H17.1c-1.4 0-2.5-1.1-2.5-2.5s1.1-2.5 2.5-2.5h65.8C84.3 51.2 85.4 52.3 85.4 53.7zM85.4 43.1c0 1.4-1.1 2.5-2.5 2.5H50c-1.4 0-2.5-1.1-2.5-2.5s1.1-2.5 2.5-2.5h32.9C84.3 40.6 85.4 41.7 85.4 43.1z" fill="#ffffff" data-fill-palette-color="accent"></path></svg></g></svg></g></svg></g></svg></g></svg></g><g><path d="M0 123.6c0-68.262 55.338-123.6 123.6-123.6 30.402 0 58.24 10.976 79.768 29.183l-11.147 0c-19.26-14.022-42.974-22.294-68.621-22.295-64.458 0-116.712 52.254-116.712 116.712 0 64.458 52.254 116.712 116.712 116.712 25.647 0 49.361-8.272 68.621-22.295l11.147 0c-21.528 18.206-49.366 29.183-79.768 29.183-68.262 0-123.6-55.338-123.6-123.6z" fill="#ffffff" stroke="transparent" data-fill-palette-color="tertiary"></path></g></svg></g><defs></defs></svg><rect width="395.52" height="247.2" fill="none" stroke="none" visibility="hidden"></rect></g></svg></g></svg>